<svg width="32" height="32" viewBox="0 0 32 32" fill="none" xmlns="http://www.w3.org/2000/svg">
<path d="M29.7869 14.1907L29.7769 14.1863L3.08438 3.11503C2.85986 3.02106 2.61556 2.98421 2.37332 3.00777C2.13107 3.03133 1.89845 3.11457 1.69625 3.25003C1.48262 3.39001 1.30715 3.58091 1.18561 3.80554C1.06407 4.03018 1.00029 4.2815 1 4.53691V11.6175C1.00012 11.9667 1.12204 12.3049 1.34474 12.5738C1.56744 12.8427 1.87698 13.0255 2.22 13.0907L16.7781 15.7825C16.8353 15.7934 16.887 15.8239 16.9241 15.8687C16.9612 15.9135 16.9816 15.9699 16.9816 16.0282C16.9816 16.0864 16.9612 16.1428 16.9241 16.1876C16.887 16.2325 16.8353 16.2629 16.7781 16.2738L2.22063 18.9657C1.8777 19.0307 1.56818 19.2132 1.34538 19.4819C1.12258 19.7506 1.00044 20.0885 1 20.4375V27.5194C0.999834 27.7633 1.06022 28.0034 1.17574 28.2182C1.29126 28.433 1.4583 28.6157 1.66188 28.75C1.90675 28.9127 2.19413 28.9997 2.48813 29C2.69251 28.9999 2.89481 28.9588 3.08313 28.8794L29.775 17.8713L29.7869 17.8657C30.1462 17.7113 30.4523 17.4549 30.6674 17.1283C30.8825 16.8017 30.9972 16.4192 30.9972 16.0282C30.9972 15.6371 30.8825 15.2546 30.6674 14.928C30.4523 14.6014 30.1462 14.3451 29.7869 14.1907Z" fill="#E1EFE6"/>
</svg>
