<svg width="42" height="42" viewBox="0 0 42 42" fill="none" xmlns="http://www.w3.org/2000/svg">
<rect width="42" height="42" rx="10" fill="#9DACFF"/>
<path d="M29.5515 28.68C29.4953 28.7773 29.4145 28.8581 29.3172 28.9143C29.2199 28.9705 29.1095 29 28.9972 29H13.6393C13.527 28.9999 13.4167 28.9702 13.3195 28.914C13.2223 28.8578 13.1417 28.777 13.0856 28.6798C13.0295 28.5825 13 28.4722 13 28.3599C13 28.2477 13.0296 28.1374 13.0857 28.0401C14.304 25.934 16.1813 24.4238 18.3722 23.7079C17.2885 23.0628 16.4465 22.0797 15.9756 20.9097C15.5046 19.7397 15.4308 18.4475 15.7653 17.2315C16.0999 16.0155 16.8244 14.9429 17.8275 14.1784C18.8307 13.414 20.057 13 21.3182 13C22.5794 13 23.8058 13.414 24.8089 14.1784C25.8121 14.9429 26.5365 16.0155 26.8711 17.2315C27.2057 18.4475 27.1318 19.7397 26.6609 20.9097C26.1899 22.0797 25.3479 23.0628 24.2642 23.7079C26.4551 24.4238 28.3325 25.934 29.5507 28.0401C29.607 28.1373 29.6367 28.2477 29.6368 28.36C29.637 28.4723 29.6075 28.5827 29.5515 28.68Z" fill="#E1EFE6"/>
</svg>
